<svg width="20" height="20" viewBox="0 0 20 20" fill="none" xmlns="http://www.w3.org/2000/svg">
<g id="Icon">
<path id="Vector" fill-rule="evenodd" clip-rule="evenodd" d="M15.5521 9.15591L15.8463 9.64428C16.165 10.1732 16.165 10.835 15.8463 11.3639L15.5521 11.8523C14.6817 13.297 13.2824 14.3456 11.6513 14.7753C10.5689 15.0605 9.43103 15.0605 8.34858 14.7753C6.71754 14.3456 5.31824 13.297 4.4478 11.8523L4.15356 11.3639C3.83488 10.835 3.83488 10.1732 4.15356 9.64428L4.44779 9.15591C5.31824 7.71118 6.71754 6.66263 8.34858 6.23293C9.43103 5.94775 10.5689 5.94775 11.6513 6.23293C13.2824 6.66263 14.6817 7.71118 15.5521 9.15591ZM3.59125 8.63985C4.59597 6.97223 6.21116 5.76192 8.09382 5.26592C9.34326 4.93675 10.6567 4.93675 11.9061 5.26592C13.7888 5.76192 15.4039 6.97223 16.4087 8.63985L16.7029 9.12822C17.2128 9.97461 17.2128 11.0336 16.7029 11.88L16.4087 12.3684C15.4039 14.036 13.7888 15.2463 11.9061 15.7423C10.6567 16.0715 9.34326 16.0715 8.09382 15.7423C6.21116 15.2463 4.59597 14.036 3.59125 12.3684L3.29701 11.88C2.78706 11.0336 2.78706 9.97461 3.29701 9.12822L3.59125 8.63985ZM9.99997 12.5C11.1045 12.5 12 11.6046 12 10.5C12 9.39543 11.1045 8.5 9.99997 8.5C8.8954 8.5 7.99997 9.39543 7.99997 10.5C7.99997 11.6046 8.8954 12.5 9.99997 12.5Z" fill="#777777"/>
</g>
</svg>
