<svg width="20" height="20" viewBox="0 0 20 20" fill="none" xmlns="http://www.w3.org/2000/svg">
<g id="Icon">
<path id="Vector" fill-rule="evenodd" clip-rule="evenodd" d="M3.42064 7L4.02338 7.9376C5.1481 9.68717 6.98295 10.8561 9.04393 11.1359C9.67843 11.2221 10.3217 11.2221 10.9562 11.1359C13.0171 10.8561 14.852 9.68717 15.9767 7.9376L16.5795 7L17.4206 7.54076L16.8179 8.47836C16.651 8.73796 16.4704 8.98635 16.2773 9.22276L17.8535 10.5453L17.2107 11.3114L15.5973 9.95756C14.9362 10.5888 14.1735 11.1031 13.3426 11.4793L14.1539 13.7084L13.2143 14.0504L12.4078 11.8347C11.9808 11.9676 11.5405 12.0658 11.0907 12.1269C10.3669 12.2251 9.63316 12.2251 8.90936 12.1269C8.45962 12.0658 8.01931 11.9676 7.59231 11.8347L6.78588 14.0504L5.84618 13.7084L6.65751 11.4793C5.78081 11.0824 4.98004 10.5317 4.29442 9.85216L2.55539 11.3114L1.9126 10.5453L3.62869 9.10537C3.47076 8.9045 3.32169 8.69535 3.1822 8.47836L2.57946 7.54076L3.42064 7Z" fill="#777777"/>
</g>
</svg>
